<?xml version="1.0" encoding="UTF-8"?>
<svg xmlns="http://www.w3.org/2000/svg" version="1.1" width="300" height="300" viewBox="0 0 300 300"><rect x="0" y="0" width="300" height="300" fill="#ffffff"/><g transform="scale(9.091)"><g transform="translate(2,2)"><path fill-rule="evenodd" d="M10 0L10 1L9 1L9 2L8 2L8 3L9 3L9 5L10 5L10 7L11 7L11 8L12 8L12 9L11 9L11 10L10 10L10 9L9 9L9 6L8 6L8 8L4 8L4 9L3 9L3 8L0 8L0 9L2 9L2 11L1 11L1 10L0 10L0 11L1 11L1 13L3 13L3 12L2 12L2 11L4 11L4 9L7 9L7 10L5 10L5 11L7 11L7 12L4 12L4 13L7 13L7 14L6 14L6 15L4 15L4 16L1 16L1 15L0 15L0 16L1 16L1 17L3 17L3 19L4 19L4 20L2 20L2 19L1 19L1 18L0 18L0 19L1 19L1 20L0 20L0 21L1 21L1 20L2 20L2 21L4 21L4 20L5 20L5 21L7 21L7 20L5 20L5 19L8 19L8 18L9 18L9 21L8 21L8 25L10 25L10 28L9 28L9 26L8 26L8 29L10 29L10 28L11 28L11 29L12 29L12 28L14 28L14 29L15 29L15 28L16 28L16 29L18 29L18 27L19 27L19 26L21 26L21 27L20 27L20 29L21 29L21 27L22 27L22 26L21 26L21 25L23 25L23 27L24 27L24 28L22 28L22 29L24 29L24 28L25 28L25 23L26 23L26 22L27 22L27 23L29 23L29 21L26 21L26 22L25 22L25 20L26 20L26 18L27 18L27 20L28 20L28 19L29 19L29 16L28 16L28 15L29 15L29 12L28 12L28 11L29 11L29 9L28 9L28 10L26 10L26 9L27 9L27 8L26 8L26 9L25 9L25 10L24 10L24 12L25 12L25 14L23 14L23 12L22 12L22 11L20 11L20 12L21 12L21 15L22 15L22 16L21 16L21 17L22 17L22 20L21 20L21 19L19 19L19 17L18 17L18 16L20 16L20 15L15 15L15 16L17 16L17 18L16 18L16 19L15 19L15 18L14 18L14 17L13 17L13 16L12 16L12 15L11 15L11 14L12 14L12 12L14 12L14 14L13 14L13 15L14 15L14 14L16 14L16 13L17 13L17 14L18 14L18 11L17 11L17 10L18 10L18 7L19 7L19 6L20 6L20 7L21 7L21 4L19 4L19 3L20 3L20 2L21 2L21 1L20 1L20 0L17 0L17 1L18 1L18 2L19 2L19 3L18 3L18 4L19 4L19 6L18 6L18 7L17 7L17 3L16 3L16 2L15 2L15 3L16 3L16 5L14 5L14 3L12 3L12 2L11 2L11 3L12 3L12 5L10 5L10 3L9 3L9 2L10 2L10 1L11 1L11 0ZM14 0L14 1L13 1L13 2L14 2L14 1L15 1L15 0ZM13 5L13 7L12 7L12 6L11 6L11 7L12 7L12 8L13 8L13 9L14 9L14 10L13 10L13 11L14 11L14 10L15 10L15 9L16 9L16 8L17 8L17 7L16 7L16 6L15 6L15 7L14 7L14 5ZM15 7L15 8L16 8L16 7ZM21 8L21 10L23 10L23 8ZM7 10L7 11L8 11L8 12L9 12L9 13L8 13L8 14L7 14L7 15L6 15L6 16L7 16L7 17L6 17L6 18L7 18L7 17L8 17L8 16L7 16L7 15L9 15L9 16L10 16L10 18L11 18L11 17L12 17L12 16L11 16L11 15L10 15L10 12L9 12L9 11L10 11L10 10L9 10L9 11L8 11L8 10ZM25 10L25 11L26 11L26 13L27 13L27 14L25 14L25 15L24 15L24 16L23 16L23 18L24 18L24 20L25 20L25 18L26 18L26 17L27 17L27 18L28 18L28 17L27 17L27 14L28 14L28 13L27 13L27 11L26 11L26 10ZM11 11L11 12L12 12L12 11ZM15 11L15 12L16 12L16 11ZM22 14L22 15L23 15L23 14ZM25 15L25 16L26 16L26 15ZM4 16L4 17L5 17L5 16ZM4 18L4 19L5 19L5 18ZM13 18L13 19L14 19L14 18ZM11 19L11 20L10 20L10 23L12 23L12 24L11 24L11 25L12 25L12 24L13 24L13 25L14 25L14 26L13 26L13 27L14 27L14 26L15 26L15 27L16 27L16 28L17 28L17 26L16 26L16 25L15 25L15 24L16 24L16 22L18 22L18 23L19 23L19 22L20 22L20 20L19 20L19 19L18 19L18 20L19 20L19 21L17 21L17 19L16 19L16 20L15 20L15 22L14 22L14 20L12 20L12 19ZM11 20L11 22L12 22L12 20ZM21 21L21 24L24 24L24 21ZM13 22L13 23L14 23L14 22ZM22 22L22 23L23 23L23 22ZM17 24L17 25L18 25L18 26L19 26L19 25L20 25L20 24ZM28 24L28 25L26 25L26 27L27 27L27 29L29 29L29 28L28 28L28 27L29 27L29 24ZM27 26L27 27L28 27L28 26ZM11 27L11 28L12 28L12 27ZM0 0L0 7L7 7L7 0ZM1 1L1 6L6 6L6 1ZM2 2L2 5L5 5L5 2ZM22 0L22 7L29 7L29 0ZM23 1L23 6L28 6L28 1ZM24 2L24 5L27 5L27 2ZM0 22L0 29L7 29L7 22ZM1 23L1 28L6 28L6 23ZM2 24L2 27L5 27L5 24Z" fill="#000000"/></g></g></svg>
