<?xml version="1.0" encoding="UTF-8"?>
<svg xmlns="http://www.w3.org/2000/svg" version="1.1" width="300" height="300" viewBox="0 0 300 300"><rect x="0" y="0" width="300" height="300" fill="#ffffff"/><g transform="scale(9.091)"><g transform="translate(2,2)"><path fill-rule="evenodd" d="M9 0L9 1L8 1L8 2L9 2L9 3L8 3L8 4L10 4L10 7L11 7L11 4L12 4L12 5L13 5L13 6L12 6L12 9L13 9L13 8L14 8L14 9L15 9L15 10L17 10L17 9L18 9L18 10L20 10L20 11L18 11L18 12L17 12L17 11L16 11L16 12L17 12L17 13L18 13L18 14L20 14L20 15L21 15L21 14L22 14L22 16L23 16L23 15L24 15L24 16L25 16L25 13L26 13L26 15L27 15L27 16L26 16L26 17L22 17L22 18L20 18L20 17L21 17L21 16L20 16L20 17L19 17L19 18L17 18L17 19L18 19L18 20L16 20L16 18L15 18L15 19L14 19L14 20L15 20L15 21L12 21L12 19L13 19L13 18L11 18L11 21L12 21L12 22L13 22L13 23L12 23L12 25L13 25L13 24L14 24L14 25L15 25L15 24L14 24L14 23L16 23L16 24L17 24L17 23L18 23L18 22L19 22L19 23L20 23L20 27L19 27L19 25L18 25L18 26L17 26L17 25L16 25L16 26L15 26L15 27L14 27L14 28L15 28L15 29L16 29L16 27L18 27L18 28L17 28L17 29L18 29L18 28L21 28L21 29L22 29L22 28L21 28L21 25L25 25L25 26L22 26L22 27L23 27L23 29L24 29L24 27L25 27L25 28L26 28L26 29L27 29L27 28L28 28L28 26L29 26L29 25L28 25L28 24L26 24L26 23L27 23L27 22L29 22L29 20L28 20L28 19L27 19L27 16L28 16L28 15L27 15L27 12L28 12L28 11L27 11L27 12L25 12L25 13L21 13L21 12L22 12L22 11L23 11L23 12L24 12L24 11L25 11L25 9L26 9L26 8L25 8L25 9L24 9L24 8L23 8L23 9L22 9L22 8L20 8L20 7L21 7L21 5L20 5L20 3L21 3L21 0L15 0L15 1L17 1L17 2L16 2L16 4L12 4L12 2L13 2L13 1L11 1L11 2L10 2L10 0ZM18 1L18 2L17 2L17 3L18 3L18 4L16 4L16 5L19 5L19 7L20 7L20 5L19 5L19 2L20 2L20 1ZM14 2L14 3L15 3L15 2ZM10 3L10 4L11 4L11 3ZM8 5L8 7L9 7L9 5ZM13 6L13 7L14 7L14 8L15 8L15 7L16 7L16 9L17 9L17 8L18 8L18 9L20 9L20 10L21 10L21 9L20 9L20 8L18 8L18 6L17 6L17 7L16 7L16 6L15 6L15 7L14 7L14 6ZM0 8L0 10L1 10L1 11L0 11L0 12L4 12L4 11L5 11L5 10L6 10L6 11L9 11L9 13L10 13L10 14L11 14L11 13L12 13L12 14L13 14L13 15L12 15L12 17L13 17L13 16L14 16L14 17L18 17L18 16L14 16L14 15L17 15L17 14L16 14L16 13L12 13L12 11L13 11L13 10L11 10L11 11L10 11L10 9L11 9L11 8L6 8L6 9L5 9L5 8ZM27 8L27 9L28 9L28 10L29 10L29 9L28 9L28 8ZM2 9L2 10L5 10L5 9ZM6 9L6 10L7 10L7 9ZM8 9L8 10L9 10L9 9ZM23 10L23 11L24 11L24 10ZM14 11L14 12L15 12L15 11ZM6 12L6 13L5 13L5 14L4 14L4 13L3 13L3 14L2 14L2 13L1 13L1 14L2 14L2 16L3 16L3 17L2 17L2 20L6 20L6 21L8 21L8 23L11 23L11 22L10 22L10 20L6 20L6 19L7 19L7 18L8 18L8 17L9 17L9 18L10 18L10 17L11 17L11 16L6 16L6 17L4 17L4 16L3 16L3 14L4 14L4 15L5 15L5 14L6 14L6 15L7 15L7 14L6 14L6 13L7 13L7 12ZM10 12L10 13L11 13L11 12ZM18 12L18 13L20 13L20 14L21 14L21 13L20 13L20 12ZM28 13L28 14L29 14L29 13ZM0 17L0 21L1 21L1 17ZM6 17L6 18L7 18L7 17ZM28 17L28 18L29 18L29 17ZM3 18L3 19L5 19L5 18ZM19 18L19 21L20 21L20 18ZM22 18L22 19L21 19L21 20L22 20L22 19L23 19L23 20L24 20L24 19L25 19L25 21L26 21L26 20L27 20L27 19L25 19L25 18L24 18L24 19L23 19L23 18ZM15 21L15 22L16 22L16 23L17 23L17 21ZM21 21L21 24L24 24L24 21ZM22 22L22 23L23 23L23 22ZM8 24L8 29L10 29L10 28L11 28L11 29L12 29L12 27L13 27L13 26L11 26L11 27L10 27L10 28L9 28L9 25L11 25L11 24ZM25 24L25 25L26 25L26 24ZM25 26L25 27L26 27L26 28L27 28L27 26ZM0 0L0 7L7 7L7 0ZM1 1L1 6L6 6L6 1ZM2 2L2 5L5 5L5 2ZM22 0L22 7L29 7L29 0ZM23 1L23 6L28 6L28 1ZM24 2L24 5L27 5L27 2ZM0 22L0 29L7 29L7 22ZM1 23L1 28L6 28L6 23ZM2 24L2 27L5 27L5 24Z" fill="#000000"/></g></g></svg>
