<?xml version="1.0" encoding="UTF-8"?>
<svg xmlns="http://www.w3.org/2000/svg" version="1.1" width="300" height="300" viewBox="0 0 300 300"><rect x="0" y="0" width="300" height="300" fill="#ffffff"/><g transform="scale(9.091)"><g transform="translate(2,2)"><path fill-rule="evenodd" d="M8 0L8 1L10 1L10 0ZM15 0L15 1L14 1L14 2L11 2L11 4L10 4L10 3L9 3L9 2L8 2L8 5L9 5L9 6L8 6L8 7L9 7L9 8L8 8L8 9L7 9L7 8L6 8L6 9L4 9L4 8L0 8L0 10L1 10L1 9L2 9L2 11L3 11L3 12L4 12L4 11L3 11L3 9L4 9L4 10L5 10L5 12L6 12L6 13L4 13L4 14L6 14L6 15L8 15L8 14L10 14L10 15L9 15L9 16L10 16L10 15L11 15L11 14L12 14L12 16L11 16L11 17L12 17L12 18L11 18L11 19L10 19L10 20L8 20L8 19L9 19L9 18L8 18L8 19L7 19L7 18L6 18L6 19L5 19L5 20L4 20L4 18L5 18L5 17L8 17L8 16L3 16L3 17L1 17L1 18L0 18L0 19L1 19L1 18L3 18L3 19L2 19L2 20L1 20L1 21L8 21L8 22L9 22L9 23L14 23L14 22L15 22L15 21L14 21L14 20L13 20L13 18L14 18L14 17L12 17L12 16L14 16L14 15L15 15L15 16L16 16L16 17L15 17L15 19L16 19L16 18L17 18L17 22L18 22L18 24L20 24L20 25L21 25L21 26L19 26L19 27L18 27L18 25L15 25L15 24L16 24L16 23L15 23L15 24L14 24L14 26L13 26L13 24L12 24L12 25L11 25L11 24L10 24L10 26L9 26L9 25L8 25L8 29L9 29L9 28L10 28L10 29L11 29L11 28L12 28L12 29L13 29L13 28L12 28L12 26L13 26L13 27L14 27L14 29L15 29L15 28L16 28L16 27L14 27L14 26L17 26L17 27L18 27L18 29L19 29L19 28L20 28L20 29L21 29L21 27L22 27L22 25L23 25L23 28L24 28L24 29L25 29L25 28L26 28L26 25L28 25L28 27L27 27L27 29L28 29L28 27L29 27L29 25L28 25L28 24L29 24L29 23L28 23L28 22L29 22L29 21L27 21L27 18L28 18L28 15L29 15L29 13L27 13L27 12L26 12L26 11L28 11L28 12L29 12L29 11L28 11L28 10L29 10L29 8L28 8L28 10L26 10L26 11L24 11L24 10L25 10L25 9L27 9L27 8L24 8L24 9L22 9L22 8L21 8L21 4L20 4L20 3L21 3L21 2L20 2L20 3L19 3L19 1L21 1L21 0ZM16 1L16 3L12 3L12 5L10 5L10 6L9 6L9 7L10 7L10 8L9 8L9 9L8 9L8 10L9 10L9 12L10 12L10 13L11 13L11 11L14 11L14 10L15 10L15 9L16 9L16 8L17 8L17 7L18 7L18 8L19 8L19 7L20 7L20 6L19 6L19 5L18 5L18 6L17 6L17 4L16 4L16 3L18 3L18 4L19 4L19 3L18 3L18 1ZM13 4L13 5L12 5L12 7L11 7L11 6L10 6L10 7L11 7L11 8L12 8L12 7L13 7L13 9L15 9L15 5L14 5L14 4ZM13 5L13 7L14 7L14 5ZM16 6L16 7L17 7L17 6ZM18 6L18 7L19 7L19 6ZM6 9L6 10L7 10L7 9ZM9 9L9 10L10 10L10 9ZM17 9L17 10L16 10L16 12L12 12L12 14L13 14L13 15L14 15L14 14L15 14L15 15L16 15L16 14L17 14L17 18L18 18L18 16L19 16L19 19L18 19L18 21L19 21L19 20L21 20L21 19L20 19L20 18L21 18L21 16L22 16L22 19L23 19L23 16L24 16L24 15L25 15L25 17L24 17L24 20L26 20L26 19L25 19L25 18L26 18L26 17L27 17L27 15L25 15L25 14L27 14L27 13L25 13L25 12L22 12L22 10L21 10L21 9L20 9L20 10L19 10L19 11L17 11L17 10L18 10L18 9ZM6 11L6 12L7 12L7 13L6 13L6 14L7 14L7 13L8 13L8 12L7 12L7 11ZM20 11L20 13L19 13L19 14L18 14L18 12L17 12L17 14L18 14L18 15L22 15L22 16L23 16L23 15L24 15L24 14L23 14L23 13L22 13L22 14L21 14L21 11ZM0 12L0 14L1 14L1 15L3 15L3 14L2 14L2 13L1 13L1 12ZM13 13L13 14L14 14L14 13ZM22 14L22 15L23 15L23 14ZM6 19L6 20L7 20L7 19ZM11 19L11 20L12 20L12 19ZM9 21L9 22L10 22L10 21ZM11 21L11 22L12 22L12 21ZM21 21L21 24L24 24L24 21ZM22 22L22 23L23 23L23 22ZM26 22L26 23L25 23L25 25L26 25L26 24L27 24L27 22ZM10 26L10 28L11 28L11 26ZM24 26L24 28L25 28L25 26ZM0 0L0 7L7 7L7 0ZM1 1L1 6L6 6L6 1ZM2 2L2 5L5 5L5 2ZM22 0L22 7L29 7L29 0ZM23 1L23 6L28 6L28 1ZM24 2L24 5L27 5L27 2ZM0 22L0 29L7 29L7 22ZM1 23L1 28L6 28L6 23ZM2 24L2 27L5 27L5 24Z" fill="#000000"/></g></g></svg>
